<?xml version="1.0" encoding="UTF-8"?>
<svg id="logo" xmlns="http://www.w3.org/2000/svg" version="1.1" viewBox="0 0 512 512">
  <defs>
    <style>
      .cls-1 {
        fill: #f15a24;
      }

      .cls-1, .cls-2 {
        stroke-width: 0px;
      }

      .cls-2 {
        fill: #fff;
      }
    </style>
  </defs>
  <circle id="background-color-logo" class="cls-2" cx="255.92" cy="257.5" r="254.08"/>
  <path id="YL-myname-letter" class="cls-1" d="M237.62,216.54s-43.07,4.94-66.46-18.45c-1.32-1.32-14.12-13.76-16.63-27.26-.67-3.61-1.17-10.29-.54-16.71.27-2.76.66-4.65.85-5.48.88-3.98,1.92-5.93,3.2-9.31,2.28-6.02,3.66-9.65,3.34-13.69-.38-4.83-3.02-8.14-3.96-9.49-7.26-10.48-10.78-45.1,5.73-55.72,16.81-10.82,49.66,6.29,53.26,23.79.08.41.18.96.25,1.63,2.9-1.3,6.9-2.86,11.8-4.1,6-1.52,10.71-1.88,14.01-2.13,3.06-.22,8.68-.61,15.69.13,5.54.59,13.65,2.06,22.98,6.1,3.87-7.23,8.34-12.1,11.57-15.12,2.46-2.29,19.58-17.79,39.76-14.65.88.14,1.61.28,2.1.39.38.08.77.17,1.17.27.33.08.64.17.95.26.7.33,1.72.88,2.8,1.75,5.65,4.51,6.21,12.2,6.69,20.37.65,11.08-1.37,19.75-2.84,24.63-1.3,4.33-2.79,7.82-3.96,10.29,3.53,3.06,8.74,8.39,12.62,16.42,6.24,12.93,5.24,24.97,4.53,29.99-.56,2.5-1.31,5.14-2.32,7.87-4.64,12.52-12.55,21.05-18.48,26.21,0,0-23.14,17.41-33.43,17.41-.16,6.21-.9,13.42-2.76,21.25-4.97,20.94-15.49,35.88-22.8,44.49-1.91,2.57-3.87,5.15-5.88,7.73-10.14,13-20.55,24.72-30.92,35.26-23.85,20.46-47.7,40.92-71.55,61.38,0,0,30.86,10.48,66.86,10.48,0,0,36.67,1.28,58.19-20.23l43.09-53.35c2.16-2.81,5.24-6.22,9.46-9.46,6.59-5.07,13.1-7.52,17.46-8.76,1.38-.08,11.47-.47,19.03,7.65,7.46,8.01,6.48,17.88,6.31,19.28-.46,4.13-1.23,8.74-2.51,13.7-2.38,9.2-5.78,16.76-8.96,22.54-1.92,3.76-4.04,7.64-6.41,11.59-6.39,10.68-13.2,19.74-19.75,27.33-4.17,5.34-9.39,11.22-15.85,17.11-10.79,9.84-21.52,16.48-30.2,20.94-3.9,1.92-8.12,3.79-12.65,5.53-14,5.37-27.05,7.97-38.03,9.16,0,0-48.4,4.35-86.51-7.52,0,0-62.64-14.11-76.09-30.2,0,0-18.73-22.68-6.33-46.95,0,0,16.48-23.74,43.52-39.43,0,0-16.32-22.29-15.74-46.55,0,0-.21-21.64-8.65-28.95-1.54-1.56-3.89-3.49-7.15-4.76-9.43-3.69-18.36,1.22-19.85,2.07-3.56,2.35-7.94,4.86-13.15,7.08-7.63,3.26-14.62,4.87-20.11,5.7,0,0-15.56,2.37-29.93-12.66,0,0-9.14-11.58-2.24-29.27.09-.22.17-.44.26-.66,7.38-18.07,27.3-26.24,27.3-26.24,0,0,24-9.89,43.12-6.59,0,0,37.19,1.05,53.27,15.3,16.09,14.24,26.9,29.27,29.27,37.19,0,0,13.45,34.15,15.82,44.18,8.4-7.79,16.79-15.58,25.19-23.38,4.94-5.03,10.36-11.25,15.63-18.8,7.28-10.41,12.2-20.35,15.55-28.58Z"/>
  <g id="cat-paw">
    <g id="paw01">
      <ellipse class="cls-1" cx="471.83" cy="287.37" rx="4.69" ry="11.08"/>
      <ellipse class="cls-1" cx="435.61" cy="287.37" rx="4.69" ry="11.08"/>
      <ellipse class="cls-1" cx="453.08" cy="276.3" rx="4.69" ry="11.08"/>
      <circle class="cls-1" cx="453.72" cy="307.51" r="13.42"/>
    </g>
    <g id="paw02">
      <ellipse class="cls-1" cx="400.99" cy="231.77" rx="4.69" ry="11.08"/>
      <ellipse class="cls-1" cx="364.03" cy="231.77" rx="4.69" ry="11.08"/>
      <ellipse class="cls-1" cx="381.61" cy="220.7" rx="4.69" ry="11.08"/>
      <circle class="cls-1" cx="382.25" cy="251.79" r="13.42"/>
    </g>
    <g id="paw03">
      <ellipse class="cls-1" cx="478.22" cy="176.17" rx="4.69" ry="11.08"/>
      <ellipse class="cls-1" cx="442" cy="176.17" rx="4.69" ry="11.08"/>
      <ellipse class="cls-1" cx="459.47" cy="165.09" rx="4.69" ry="11.08"/>
      <circle class="cls-1" cx="460.11" cy="196.2" r="13.42"/>
    </g>
    <g id="paw04">
      <ellipse class="cls-1" cx="437.32" cy="112.15" rx="4.69" ry="11.08"/>
      <ellipse class="cls-1" cx="400.99" cy="112.15" rx="4.69" ry="11.08"/>
      <ellipse class="cls-1" cx="418.57" cy="101.08" rx="4.69" ry="11.08"/>
      <circle class="cls-1" cx="419.21" cy="132.18" r="13.42"/>
    </g>
    <g id="paw05">
      <circle class="cls-1" cx="425.92" cy="408.58" r="13.42"/>
      <ellipse class="cls-1" cx="444.03" cy="388.55" rx="4.69" ry="11.08"/>
      <ellipse class="cls-1" cx="406.64" cy="388.55" rx="4.69" ry="11.08"/>
      <ellipse class="cls-1" cx="425.28" cy="377.49" rx="4.69" ry="11.08"/>
    </g>
  </g>
</svg>